<?xml version="1.0" standalone="no"?>
<!DOCTYPE svg PUBLIC "-//W3C//DTD SVG 20010904//EN"
 "http://www.w3.org/TR/2001/REC-SVG-20010904/DTD/svg10.dtd">
<svg version="1.0" xmlns="http://www.w3.org/2000/svg"
 width="2160.000000pt" height="2160.000000pt" viewBox="0 0 2160.000000 2160.000000"
 preserveAspectRatio="xMidYMid meet">

<g transform="translate(0.000000,2160.000000) scale(0.100000,-0.100000)"
fill="#000000" stroke="none">
<path d="M11430 19120 c-41 -5 -106 -11 -145 -15 -38 -4 -74 -11 -80 -15 -5
-4 -37 -11 -70 -15 -32 -3 -66 -10 -75 -15 -9 -5 -47 -16 -84 -25 -38 -8 -83
-21 -100 -29 -17 -8 -67 -26 -111 -41 -44 -15 -87 -33 -96 -41 -8 -8 -19 -14
-24 -14 -15 0 -199 -93 -226 -114 -15 -12 -57 -39 -93 -61 -175 -105 -375
-283 -529 -467 -92 -111 -244 -349 -303 -475 -117 -248 -189 -482 -218 -703
-3 -25 -9 -70 -13 -100 -12 -85 -8 -414 5 -524 15 -124 56 -320 84 -406 11
-36 26 -83 33 -105 8 -22 20 -53 29 -70 9 -16 16 -37 16 -45 0 -18 121 -264
132 -268 4 -2 8 -9 8 -16 0 -7 14 -32 30 -54 17 -23 30 -44 30 -47 0 -16 75
-118 187 -253 61 -73 293 -302 322 -316 17 -9 35 -25 41 -36 6 -11 16 -20 23
-20 8 0 26 -13 42 -30 15 -16 32 -27 36 -24 4 2 13 -5 19 -17 7 -11 14 -18 17
-15 3 3 19 -4 35 -16 30 -21 124 -71 300 -159 53 -27 141 -63 195 -80 54 -17
116 -38 137 -47 21 -9 48 -17 60 -18 12 -2 32 -5 46 -8 14 -3 35 -8 48 -11 12
-3 32 -7 45 -10 12 -3 36 -8 52 -10 33 -5 75 -11 150 -22 59 -8 436 -9 515 0
93 10 203 27 235 36 16 5 57 14 90 21 33 7 74 19 91 26 17 7 58 20 90 28 32 7
73 21 89 30 17 9 34 16 38 16 13 0 69 26 191 87 l110 55 28 -34 c15 -18 28
-39 28 -46 0 -7 7 -15 15 -18 8 -4 15 -10 15 -16 0 -5 20 -38 44 -73 24 -35
52 -84 62 -109 11 -25 22 -46 27 -46 4 0 7 -5 7 -10 0 -6 15 -43 34 -83 73
-153 131 -364 151 -547 18 -158 3 -416 -35 -600 -30 -145 -121 -445 -160 -525
-5 -11 -30 -69 -56 -130 -45 -108 -208 -432 -276 -550 -130 -225 -180 -309
-224 -377 -27 -42 -67 -105 -88 -140 -52 -83 -179 -280 -351 -541 -564 -856
-788 -1242 -992 -1707 -30 -69 -60 -138 -68 -155 -34 -78 -135 -393 -160 -500
-15 -66 -32 -137 -37 -157 -5 -21 -12 -38 -16 -38 -4 0 -875 869 -1937 1930
l-1929 1930 34 66 c19 36 43 80 52 97 9 18 44 100 77 182 234 588 222 1230
-34 1840 -21 50 -46 101 -56 114 -11 13 -19 28 -19 33 0 9 -89 169 -99 178 -8
7 -29 41 -38 60 -4 8 -15 21 -25 28 -10 7 -18 20 -18 28 0 8 -7 17 -15 20 -8
3 -24 22 -36 42 -11 21 -27 41 -35 45 -8 4 -14 13 -14 19 0 6 -24 34 -52 63
-29 29 -65 65 -79 81 -51 56 -279 254 -293 254 -3 0 -35 24 -71 53 -37 28 -69
52 -73 52 -4 0 -36 17 -71 38 -35 21 -77 44 -95 52 -17 9 -42 22 -56 30 -29
17 -217 95 -240 100 -8 2 -51 15 -95 30 -102 33 -192 55 -199 47 -3 -3 -6 -1
-6 4 0 6 -17 11 -37 12 -21 2 -46 5 -55 8 -143 44 -640 48 -813 7 -35 -8 -30
-7 -80 -16 -22 -5 -77 -17 -121 -28 -45 -11 -92 -22 -104 -24 -12 -2 -27 -8
-34 -14 -6 -5 -45 -19 -86 -31 -41 -13 -95 -33 -120 -46 -25 -13 -80 -39 -124
-59 -77 -34 -118 -58 -274 -160 -189 -122 -415 -332 -541 -500 -33 -44 -68
-91 -78 -105 -43 -55 -147 -236 -194 -335 -138 -292 -204 -543 -229 -881 -14
-185 -2 -404 31 -577 5 -29 12 -68 15 -87 3 -19 8 -39 11 -43 3 -5 16 -50 28
-100 26 -101 77 -237 124 -335 17 -34 31 -66 31 -70 0 -12 38 -81 84 -152 23
-36 48 -78 56 -95 8 -16 21 -34 27 -38 7 -4 13 -13 13 -19 0 -6 16 -30 35 -54
19 -23 35 -45 35 -47 0 -3 12 -19 28 -35 15 -16 32 -36 37 -43 63 -81 365
-373 365 -352 0 3 23 -14 50 -37 28 -23 50 -39 50 -35 0 4 17 -7 39 -24 21
-17 41 -28 45 -24 3 3 6 1 6 -6 0 -6 11 -16 25 -21 14 -5 25 -14 25 -20 0 -6
5 -8 10 -5 6 3 22 -3 36 -14 15 -12 65 -39 113 -62 47 -23 113 -54 147 -70 33
-16 69 -32 80 -34 44 -10 92 -25 134 -41 62 -23 187 -55 232 -59 20 -2 42 -7
49 -11 7 -4 26 -8 43 -10 17 -1 56 -5 86 -9 242 -29 459 -24 690 15 174 30
239 45 303 68 31 12 57 20 57 18 0 -3 28 7 63 21 34 14 85 34 112 45 59 23
147 65 230 111 l60 33 2602 -2602 2603 -2602 -44 -78 c-24 -44 -58 -113 -76
-154 -18 -41 -38 -88 -46 -105 -39 -88 -114 -355 -129 -460 -3 -23 -7 -52 -10
-65 -27 -139 -31 -433 -9 -630 13 -119 16 -134 39 -235 38 -167 46 -198 54
-213 5 -9 21 -53 35 -97 15 -44 37 -102 50 -130 13 -27 37 -77 52 -110 15 -33
45 -89 66 -124 21 -34 38 -65 38 -68 0 -3 25 -39 55 -81 30 -43 65 -92 77
-110 37 -54 59 -80 138 -166 124 -134 342 -326 370 -326 5 0 14 -9 20 -21 7
-11 14 -18 17 -15 3 3 22 -7 42 -22 20 -15 47 -33 61 -40 14 -6 53 -30 88 -51
34 -22 62 -38 62 -35 0 2 18 -7 40 -21 22 -14 42 -25 44 -25 2 0 25 -9 50 -20
26 -11 50 -20 54 -21 4 -1 35 -15 69 -30 34 -15 64 -25 67 -22 3 4 6 1 6 -4 0
-6 8 -10 18 -9 9 2 26 -3 37 -10 11 -7 37 -15 59 -18 21 -4 42 -9 47 -12 8 -5
23 -9 78 -20 13 -3 31 -8 40 -13 9 -4 30 -7 46 -6 17 1 38 -2 47 -7 10 -5 39
-11 65 -13 27 -3 68 -8 93 -11 72 -10 413 -12 477 -3 32 4 81 10 108 13 28 2
57 7 65 10 8 3 31 7 50 10 54 6 132 23 163 35 16 6 38 11 50 11 12 0 36 7 52
16 17 9 38 17 48 19 52 11 109 33 250 99 55 25 101 46 103 46 3 0 36 20 74 45
38 25 71 45 74 45 5 0 78 47 140 90 158 110 392 338 503 490 137 189 197 292
283 485 38 87 47 108 73 185 49 144 76 257 113 481 3 19 8 122 11 229 7 252
-12 428 -71 670 -16 62 -26 92 -67 201 -16 41 -29 81 -29 88 0 15 -133 285
-142 289 -5 2 -8 8 -8 14 0 5 -13 29 -30 53 -16 24 -30 47 -30 51 0 9 -137
188 -161 210 -10 9 -19 20 -19 25 0 4 -21 29 -47 56 -27 27 -60 63 -74 79 -43
49 -168 164 -178 164 -5 0 -11 4 -13 9 -6 16 -210 171 -226 171 -4 0 -27 14
-50 31 -23 17 -42 28 -42 24 0 -3 -12 2 -27 13 -16 10 -44 27 -63 37 -87 44
-130 65 -132 63 -2 -1 -14 5 -28 12 -14 8 -27 14 -30 15 -7 0 -143 52 -188 71
-18 8 -42 14 -53 14 -11 0 -30 5 -42 12 -12 6 -40 15 -62 19 -22 4 -51 10 -65
13 -43 11 -202 37 -260 43 -128 14 -574 4 -620 -14 -8 -3 -33 -8 -55 -9 -22
-2 -70 -13 -107 -24 -36 -11 -78 -20 -93 -20 -14 0 -38 -6 -53 -13 -15 -8 -56
-22 -92 -31 -36 -10 -87 -28 -115 -41 -27 -13 -72 -33 -100 -46 -87 -38 -109
-49 -153 -75 -39 -23 -43 -23 -49 -7 -3 10 -23 43 -43 73 -46 70 -122 259
-149 371 -65 270 -39 596 73 930 85 254 260 626 413 879 25 41 55 91 65 110
28 49 101 167 231 371 123 194 147 231 351 542 178 271 262 399 301 462 137
217 224 361 291 479 21 37 44 76 49 85 6 9 47 84 92 166 238 439 406 851 503
1235 119 475 139 963 54 1382 -9 43 -17 84 -18 92 -1 9 -5 19 -9 22 -4 4 -7
16 -7 27 0 11 -9 51 -21 90 -11 38 -22 77 -25 86 -9 39 -37 119 -55 157 -10
23 -19 46 -19 51 0 16 -36 96 -111 248 -74 149 -74 149 -130 235 -20 30 -42
70 -50 88 -8 17 -16 32 -19 32 -3 0 -14 17 -25 38 -11 20 -25 41 -32 45 -7 4
-13 14 -13 22 0 7 -10 22 -22 32 -13 10 -27 26 -33 35 -5 9 -32 47 -59 84 -41
56 -47 70 -38 85 33 52 101 182 126 239 15 36 34 79 42 96 40 89 107 330 133
474 45 254 45 582 0 820 -20 107 -70 315 -79 325 -4 5 -11 25 -15 44 -7 34
-86 231 -105 261 -5 8 -23 42 -40 75 -17 33 -40 76 -52 95 -12 19 -27 46 -34
59 -15 29 -74 113 -126 182 -21 26 -38 51 -38 54 0 4 -24 30 -52 59 -29 29
-74 74 -99 102 -43 46 -162 157 -239 222 -35 29 -107 78 -141 97 -11 5 -19 13
-19 17 0 5 -7 8 -15 8 -7 0 -18 6 -22 13 -4 7 -19 18 -33 25 -14 6 -54 30 -89
52 -34 22 -67 40 -72 40 -5 0 -21 8 -36 17 -14 10 -34 18 -44 20 -10 1 -45 17
-78 34 -34 16 -71 32 -84 34 -12 3 -51 16 -87 30 -36 15 -74 28 -85 30 -11 2
-31 6 -45 9 -14 2 -37 9 -51 14 -26 11 -84 22 -130 27 -15 2 -37 6 -50 10 -13
5 -44 9 -69 11 -25 2 -56 6 -70 9 -43 10 -391 13 -470 5z m421 -1189 c13 -5
43 -11 67 -15 23 -3 50 -10 60 -15 9 -5 19 -8 22 -8 6 2 93 -30 139 -50 18 -8
40 -16 47 -17 8 -1 42 -22 77 -47 34 -24 69 -48 78 -54 47 -29 80 -57 144
-120 74 -75 145 -157 145 -170 0 -4 14 -24 30 -45 17 -21 30 -42 30 -48 0 -6
3 -12 8 -14 11 -5 51 -83 56 -111 2 -13 11 -38 20 -55 8 -16 28 -79 43 -138
24 -97 27 -127 27 -274 0 -269 -56 -460 -202 -685 -59 -91 -238 -269 -327
-326 -155 -99 -357 -181 -475 -192 -25 -2 -52 -7 -60 -10 -24 -10 -289 -1
-355 13 -33 6 -66 12 -72 12 -7 1 -13 5 -13 9 0 4 -8 6 -17 5 -10 -2 -33 4
-52 11 -19 8 -42 16 -51 18 -24 5 -130 58 -230 116 -70 40 -214 166 -273 239
-52 63 -111 149 -133 194 -14 28 -34 67 -44 86 -16 30 -49 123 -54 155 -1 6
-4 15 -7 20 -6 10 -13 41 -25 120 -3 22 -8 43 -11 47 -9 15 -4 264 6 328 29
181 92 343 186 487 114 172 351 377 507 439 34 13 74 31 88 38 14 7 50 19 80
25 30 7 69 17 87 22 17 5 58 12 90 15 32 3 60 8 63 10 8 8 276 -5 301 -15z
m-6884 -3387 c-3 -3 -12 -4 -19 -1 -8 3 -5 6 6 6 11 1 17 -2 13 -5z m70 -10
c-3 -3 -12 -4 -19 -1 -8 3 -5 6 6 6 11 1 17 -2 13 -5z m308 -84 c3 -6 -1 -7
-9 -4 -18 7 -21 14 -7 14 6 0 13 -4 16 -10z m400 -290 c10 -11 16 -20 13 -20
-3 0 -13 9 -23 20 -10 11 -16 20 -13 20 3 0 13 -9 23 -20z m312 -882 c-3 -8
-6 -5 -6 6 -1 11 2 17 5 13 3 -3 4 -12 1 -19z m-2142 -674 c9 -15 12 -23 6
-20 -11 7 -35 46 -28 46 3 0 12 -12 22 -26z m315 -286 c0 -6 -6 -5 -15 2 -8 7
-15 14 -15 16 0 2 7 1 15 -2 8 -4 15 -11 15 -16z m95 -56 c-3 -3 -11 0 -18 7
-9 10 -8 11 6 5 10 -3 15 -9 12 -12z m46 -20 c-7 -2 -18 1 -23 6 -8 8 -4 9 13
5 13 -4 18 -8 10 -11z m432 -99 c-7 -2 -19 -2 -25 0 -7 3 -2 5 12 5 14 0 19
-2 13 -5z m8623 -6078 c66 -4 115 -10 159 -20 17 -4 41 -8 55 -10 14 -2 48
-13 76 -24 29 -11 54 -17 58 -14 3 4 6 1 6 -6 0 -7 3 -10 8 -8 12 8 181 -82
275 -146 53 -36 220 -210 265 -277 20 -30 39 -57 42 -60 3 -3 26 -48 52 -100
126 -253 159 -557 89 -832 -54 -213 -185 -436 -343 -584 -72 -67 -262 -199
-311 -217 -17 -6 -43 -16 -57 -24 -14 -7 -30 -13 -36 -13 -6 0 -31 -9 -55 -19
-24 -11 -64 -23 -89 -26 -55 -9 -60 -10 -84 -20 -18 -8 -281 -12 -356 -6 -29
3 -112 20 -170 36 -47 13 -142 48 -210 78 -19 9 -66 36 -104 61 -38 25 -71 46
-73 46 -2 0 -16 14 -30 30 -13 17 -28 28 -32 25 -17 -10 -221 225 -221 255 0
5 -4 10 -9 10 -13 0 -67 92 -95 166 -15 38 -31 78 -36 89 -5 11 -22 70 -37
130 -23 95 -27 131 -27 265 0 86 5 179 12 210 7 30 14 64 16 75 2 11 14 52 26
90 93 291 307 550 575 694 22 12 47 26 55 31 29 16 86 38 130 50 25 7 50 16
56 21 16 13 161 39 254 45 41 3 77 7 78 9 2 2 10 1 17 -1 7 -3 39 -7 71 -9z"/>
</g>
</svg>
